<svg xmlns="http://www.w3.org/2000/svg" xmlns:svg="http://www.w3.org/2000/svg" xmlns:xlink="http://www.w3.org/1999/xlink" id="Layer_1" width="820" height="180" enable-background="new 0 0 517 500" overflow="visible" version="1.1" viewBox="0 0 820 180" xml:space="preserve"><metadata id="metadata3335"/><defs id="defs3333"><linearGradient id="XMLID_8_" x1="39.302" x2="78.626" y1="222.792" y2="222.792" gradientTransform="matrix(1.9133544,0,0,1.9133544,-21.124757,-365.67174)" gradientUnits="userSpaceOnUse"><stop id="stop6390" offset=".006" stop-color="#B1D2EC"/><stop id="stop6392" offset="1" stop-color="#C8E6F6"/></linearGradient><radialGradient id="radialGradient5450" cx="63.75" cy="246.375" r="58.375" gradientUnits="userSpaceOnUse" xlink:href="#XMLID_5_"/><linearGradient id="XMLID_8_-1" x1="39.302" x2="78.626" y1="222.792" y2="222.792" gradientTransform="matrix(1.9133544,0,0,1.9133544,-21.124757,-365.67174)" gradientUnits="userSpaceOnUse"><stop id="stop3323" offset=".006" stop-color="#B1D2EC"/><stop id="stop3325" offset="1" stop-color="#C8E6F6"/></linearGradient><linearGradient id="XMLID_7_" x1="66.669" x2="110.314" y1="242.227" y2="242.227" gradientUnits="userSpaceOnUse"><stop id="stop3313" offset=".006" stop-color="#B1D2EC"/><stop id="stop3315" offset="1" stop-color="#C8E6F6"/></linearGradient><linearGradient id="XMLID_6_" x1="28.655" x2="72.827" y1="262.375" y2="262.375" gradientUnits="userSpaceOnUse"><stop id="stop3303" offset="0" stop-color="#8AACD6"/><stop id="stop3305" offset="1" stop-color="#A7C7E6"/></linearGradient></defs><g id="shadow" transform="matrix(1.5826403,0,0,1.5826403,-12.506692,-304.30966)"><radialGradient id="XMLID_5_" cx="63.75" cy="246.375" r="58.375" gradientUnits="userSpaceOnUse"><stop id="stop3283" offset="0" stop-color="#000"/><stop id="stop3285" offset=".064" stop-color="#191919"/><stop id="stop3287" offset=".254" stop-color="#5E5E5E"/><stop id="stop3289" offset=".434" stop-color="#979797"/><stop id="stop3291" offset=".598" stop-color="#C4C4C4"/><stop id="stop3293" offset=".744" stop-color="#E4E4E4"/><stop id="stop3295" offset=".866" stop-color="#F8F8F8"/><stop id="stop3297" offset=".949" stop-color="#FFF"/></radialGradient><circle id="circle3299" cx="63.75" cy="246.375" r="58.375" fill="url(#radialGradient5450)" opacity=".3"/></g><path id="path3327" fill="#ff4b4b" fill-opacity="1" stroke-width="1.913" d="m 70.946681,23.667177 -20.872783,36.439834 13.225105,23.805956 31.476593,0.08993 c 0,0 21.245884,-36.024636 22.302064,-37.813623 1.46562,0 8.23507,0 8.23507,0 L 112.4856,23.667177 Z" opacity=".6"/><path id="path3329" fill="#fff" stroke-width="1.913" d="m 113.59918,21.753822 h -2.22523 -39.319437 -2.217578 l -1.102092,1.924835 -19.784084,34.541787 -1.073392,1.873174 1.048518,1.886567 12.15554,21.881121 1.088699,1.963102 2.244365,0.0057 29.259015,0.08419 2.192704,0.0057 1.115482,-1.88848 21.1904,-35.928969 h 3.84967 6.58386 l -3.25845,-5.72093 -10.64781,-18.695386 z M 52.270428,60.122318 72.054513,25.580531 h 39.319437 l 10.64781,18.695386 v 0 0 h -6.03663 l -22.300146,37.81171 -29.259015,-0.08419 z"/><polygon id="polygon3307" fill="green" points="39.724 243.375 28.655 262.286 39.721 281.375 61.665 281.375 72.827 262.465 61.668 243.375" opacity=".6" transform="matrix(1.9024077,0,0,1.9024077,-21.299337,-394.60399)"/><path id="path3309" fill="#fff" stroke-width="1.902" d="M 97.11032,66.492078 H 94.926359 55.361986 53.179924 l -1.101494,1.883384 -19.946744,34.079758 -1.120518,1.91192 1.112908,1.91763 19.946745,34.40694 1.099591,1.8967 h 2.191574 39.564373 2.172551 l 1.1034,-1.87006 20.11225,-34.07783 1.13574,-1.92524 -1.12623,-1.92904 L 98.21182,68.377364 Z M 35.415241,104.37665 55.361986,70.296894 h 39.564373 l 20.112251,34.408876 v 0 0 L 94.926359,138.7836 H 55.361986 Z"/><polygon id="polygon3317" fill="#3c8fd0" fill-opacity="1" points="77.164 223.15 66.669 241.262 78.307 261.304 99.112 261.21 110.314 242.047 99.106 223.15" opacity=".6" transform="matrix(1.9115339,0,0,1.9115339,-49.169778,-377.37337)"/><path id="path3319" fill="#fff" stroke-width="1.912" d="m 141.36236,47.273888 h -2.17723 -39.75417 -2.204 l -1.10487,1.905799 -18.950946,32.710168 -1.110602,1.91918 1.112513,1.917269 21.133915,36.393726 1.11252,1.91344 2.21164,-0.01 37.5712,-0.16821 2.18297,-0.01 1.10105,-1.88477 20.29475,-34.717308 1.13545,-1.942119 -1.14883,-1.936384 -20.29476,-34.218368 z M 80.480009,83.807124 99.43096,51.096956 h 39.75417 l 20.29475,34.218368 v 0 0 l -20.29475,34.717306 -37.5712,0.16822 z"/><text font-stretch="normal" style="line-height:0%;-inkscape-font-specification:'Denmark, Normal';font-variant-ligatures:normal;font-variant-caps:normal;font-variant-numeric:normal;font-feature-settings:normal;text-align:start" id="text3467-9-13" x="193.245" y="108.731" fill="#00507f" fill-opacity="1" stroke-width="1.25" font-family="Denmark" font-size="117.333" font-style="normal" font-variant="normal" font-weight="normal" text-anchor="start" transform="skewX(-9.9973689)" writing-mode="lr"><tspan id="tspan57" x="193.245" y="108.731">Boost.GIL</tspan></text><text id="text3467-9-13-3" x="203.436" y="148.131" fill="#00507f" fill-opacity="1" stroke-width="1.25" font-family="Denmark" font-size="40" font-stretch="normal" font-style="normal" font-variant="normal" font-weight="normal" overflow="visible" text-anchor="start" transform="skewX(-9.9973689)" writing-mode="lr-tb" style="line-height:0%;-inkscape-font-specification:'Denmark, Normal';font-variant-ligatures:normal;font-variant-caps:normal;font-variant-numeric:normal;font-feature-settings:normal;text-align:start"><tspan id="tspan77" x="203.436" y="148.131">Generic Image Library</tspan></text></svg>